<svg xmlns="http://www.w3.org/2000/svg" viewBox="0 0 64 64" role="img" aria-label="Book Mera Plot">
  <rect width="64" height="64" rx="14" fill="#FFFFFF"/>
  <circle cx="42" cy="20" r="9" fill="#D9A441"/>
  <path d="M10 36c2-14 14-24 22-24 8 0 12 4 18 4" fill="none" stroke="#D9A441" stroke-width="3" stroke-linecap="round"/>
  <path d="M8 46c10-12 22-16 36-10 7 3 13 8 20 14H8z" fill="#2E8B57"/>
  <path d="M8 52c12-8 24-11 36-6 6 2 12 6 20 10H8z" fill="#1F7A45"/>
  <path d="M14 40 L32 22 L50 40 Z" fill="#0B1F3A"/>
  <rect x="22" y="40" width="20" height="13" fill="#0B1F3A"/>
  <rect x="28" y="43" width="8" height="7" fill="#D9A441"/>
  <path d="M50 42c-5 0-9 4-9 9 0 7 9 13 9 13s9-6 9-13c0-5-4-9-9-9z" fill="#2E8B57"/>
  <rect x="47" y="47" width="6" height="5" rx="1" fill="#D9A441"/>
</svg>
